<?xml version="1.0" standalone="no"?><!DOCTYPE svg PUBLIC "-//W3C//DTD SVG 1.1//EN" "http://www.w3.org/Graphics/SVG/1.1/DTD/svg11.dtd"><svg t="1756356025223" class="icon" viewBox="0 0 1024 1024" version="1.1" xmlns="http://www.w3.org/2000/svg" p-id="43302" xmlns:xlink="http://www.w3.org/1999/xlink" width="200" height="200"><path d="M512 512m-384 0a384 384 0 1 0 768 0 384 384 0 1 0-768 0Z" fill="#EDCFF8" p-id="43303"></path><path d="M508.736 296.192c49.728 0 89.344 11.52 119.616 34.56 31.04 23.808 49.728 59.904 56.704 108.288h-61.376c-5.44-30.72-17.92-53.76-37.248-69.12-20.224-15.36-45.824-22.272-77.696-22.272-38.848 0-69.888 14.592-92.416 43.776-21.76 28.416-32.64 66.816-32.64 115.2s10.112 86.784 31.872 114.432c20.928 27.648 52.032 42.24 92.416 42.24 68.352 0 107.968-34.56 117.248-102.912h62.144c-9.344 50.688-28.736 89.856-59.776 115.968-30.336 25.344-69.952 38.4-119.68 38.4-60.544 0-107.136-19.968-140.544-59.904C335.552 617.216 320 568.064 320 507.392c0-60.672 15.552-109.824 47.36-148.224 34.176-42.24 81.6-62.976 141.376-62.976z" fill="#333333" p-id="43304"></path></svg>