<?xml version="1.0" encoding="UTF-8" standalone="no"?>
<svg
   t="1756356787832"
   class="icon"
   viewBox="0 0 1024 1024"
   version="1.1"
   p-id="14116"
   width="200"
   height="200"
   id="svg3"
   sodipodi:docname="Enum.svg"
   inkscape:version="1.4.2 (f4327f4, 2025-05-13)"
   xmlns:inkscape="http://www.inkscape.org/namespaces/inkscape"
   xmlns:sodipodi="http://sodipodi.sourceforge.net/DTD/sodipodi-0.dtd"
   xmlns="http://www.w3.org/2000/svg"
   xmlns:svg="http://www.w3.org/2000/svg">
  <defs
     id="defs3" />
  <sodipodi:namedview
     id="namedview3"
     pagecolor="#ffffff"
     bordercolor="#000000"
     borderopacity="0.25"
     inkscape:showpageshadow="2"
     inkscape:pageopacity="0.0"
     inkscape:pagecheckerboard="0"
     inkscape:deskcolor="#d1d1d1"
     inkscape:zoom="5.89"
     inkscape:cx="100"
     inkscape:cy="100"
     inkscape:window-width="2560"
     inkscape:window-height="1476"
     inkscape:window-x="-12"
     inkscape:window-y="627"
     inkscape:window-maximized="1"
     inkscape:current-layer="svg3" />
  <g
     id="g3"
     transform="matrix(0.96,0,0,0.96,20.48,20.48)">
    <path
       d="M 512,899.5 C 298.332,899.5 124.5,725.668 124.5,512 124.5,298.332 298.332,124.5 512,124.5 c 213.668,0 387.5,173.832 387.5,387.5 0,213.668 -173.832,387.5 -387.5,387.5 z"
       fill="#d5cb0f"
       p-id="14117"
       id="path1" />
    <path
       d="M 512,137 C 305.224,137 137,305.224 137,512 137,718.776 305.224,887 512,887 718.776,887 887,718.776 887,512 887,305.224 718.776,137 512,137 m 0,-25 C 732.914,112 912,291.086 912,512 912,732.914 732.914,912 512,912 291.086,912 112,732.914 112,512 112,291.086 291.086,112 512,112 Z"
       fill="#d5cb0f"
       p-id="14118"
       id="path2" />
    <path
       d="m 658.411,331.326 a 19.065,19.065 0 0 0 -5.857,-13.47 c -4.1,-3.514 -8.785,-5.857 -14.641,-5.857 -3.514,0 -8.2,0.586 -14.056,0.586 -5.857,0.586 -11.713,1.171 -18.741,1.757 l -20.5,1.171 -19.327,1.171 -103.071,4.686 c -15.227,1.171 -29.283,1.757 -42.167,2.928 -13.47,1.171 -23.426,3.514 -29.283,6.442 q -5.271,2.635 -7.028,7.028 a 21.618,21.618 0 0 0 -1.171,7.613 c 0,9.956 7.028,16.984 21.669,21.083 0,12.884 -0.586,24.012 -0.586,33.968 l -2.342,60.323 a 313.5,313.5 0 0 0 -1.757,33.968 c -4.685,1.757 -7.613,2.343 -8.785,2.343 h -6.442 a 29.764,29.764 0 0 0 -12.884,6.442 c -4.685,3.514 -6.442,7.614 -6.442,11.713 0,6.442 1.757,11.127 5.857,14.641 3.514,4.1 7.028,5.857 11.713,5.857 h 5.857 c 1.757,0 4.685,-0.586 9.37,-1.171 -1.172,4.685 -1.757,11.127 -2.343,18.74 -1.171,8.2 -2.343,16.4 -2.928,24.6 l -2.343,25.766 a 149.641,149.641 0 0 0 -1.171,21.669 c 0,7.028 0,13.47 1.171,19.912 a 41.455,41.455 0 0 0 5.857,18.741 c 3.514,9.37 10.542,17.57 20.5,23.426 a 111.817,111.817 0 0 0 31.625,14.641 148.88,148.88 0 0 0 36.31,8.2 c 12.884,1.171 24.012,1.757 34.553,1.757 18.155,0 35.725,-0.586 53.294,-1.757 16.4,-1.171 33.968,-3.514 52.123,-5.857 l 9.956,-1.757 10.542,-3.514 c 3.514,-1.171 5.856,-3.514 8.2,-5.857 a 11.919,11.919 0 0 0 3.514,-8.785 14.36,14.36 0 0 0 -3.514,-9.37 39.416,39.416 0 0 0 -8.785,-8.2 101.768,101.768 0 0 0 -11.127,-5.857 47.342,47.342 0 0 0 -11.713,-1.757 152.7,152.7 0 0 0 -28.118,2.931 c -4.685,1.171 -8.2,1.757 -11.713,2.343 q -6.149,0.878 -10.542,1.757 c -9.37,1.757 -18.741,2.928 -29.283,4.1 a 273.274,273.274 0 0 1 -30.454,1.757 201.481,201.481 0 0 1 -26.94,-1.757 c -8.785,-0.586 -16.984,-2.343 -24.012,-5.857 -7.613,-2.343 -13.47,-7.028 -18.155,-12.884 -4.685,-5.271 -6.442,-12.884 -6.442,-22.255 a 474.228,474.228 0 0 1 2.343,-47.438 l 4.685,-51.537 c 22.255,-1.757 46.852,-3.514 73.206,-5.271 26.354,-1.757 50.366,-4.1 72.621,-6.442 a 31.336,31.336 0 0 0 16.4,-6.442 c 4.1,-2.928 6.442,-7.613 6.442,-14.056 a 21.266,21.266 0 0 0 -6.442,-15.227 22.937,22.937 0 0 0 -15.227,-5.271 c -5.857,0 -12.3,0.586 -18.741,1.171 l -21.083,2.343 -22.252,1.756 -26.354,2.343 -28.697,2.347 -26.94,2.338 c 1.171,-22.255 1.757,-43.338 2.343,-63.25 l 1.757,-61.493 q 24.6,-1.757 43.924,-3.514 c 11.713,-0.586 25.183,-1.171 40.41,-2.343 16.4,-1.171 34.553,-1.757 53.88,-1.757 a 381.737,381.737 0 0 0 53.294,-3.514 19.023,19.023 0 0 0 12.884,-7.028 c 2.342,-3.514 4.099,-8.785 4.099,-15.813 z"
       fill="#ffffff"
       p-id="14119"
       id="path3" />
  </g>
</svg>
