<?xml version="1.0" encoding="UTF-8" standalone="no"?>
<svg
   t="1756360070909"
   class="icon"
   viewBox="0 0 1024 1024"
   version="1.1"
   p-id="10051"
   width="200"
   height="200"
   id="svg2"
   sodipodi:docname="hint.svg"
   inkscape:version="1.4.2 (f4327f4, 2025-05-13)"
   xmlns:inkscape="http://www.inkscape.org/namespaces/inkscape"
   xmlns:sodipodi="http://sodipodi.sourceforge.net/DTD/sodipodi-0.dtd"
   xmlns="http://www.w3.org/2000/svg"
   xmlns:svg="http://www.w3.org/2000/svg">
  <defs
     id="defs2" />
  <sodipodi:namedview
     id="namedview2"
     pagecolor="#ffffff"
     bordercolor="#000000"
     borderopacity="0.25"
     inkscape:showpageshadow="2"
     inkscape:pageopacity="0.0"
     inkscape:pagecheckerboard="0"
     inkscape:deskcolor="#d1d1d1"
     inkscape:zoom="5.89"
     inkscape:cx="100"
     inkscape:cy="100"
     inkscape:window-width="2560"
     inkscape:window-height="1476"
     inkscape:window-x="-12"
     inkscape:window-y="627"
     inkscape:window-maximized="1"
     inkscape:current-layer="svg2" />
  <g
     id="g2"
     transform="matrix(0.75757576,0,0,0.75757576,124.81076,123.69023)">
    <path
       d="m 511.08978,512.56889 m -506.8800022,0 a 506.88001,506.88001 0 1 0 1013.7600222,0 506.88001,506.88001 0 1 0 -1013.7600222,0 z"
       fill="#ffb22e"
       p-id="10052"
       id="path1" />
    <path
       d="m 666.05511,511.20356 c 19.91111,-29.58223 31.51645,-65.19467 31.51645,-103.53778 0,-102.51378 -83.05778,-185.57156 -185.57156,-185.57156 -102.51378,0 -185.57156,83.05778 -185.57156,185.57156 0,38.34311 11.60534,73.95555 31.51645,103.53778 0,0.11377 0.11378,0.11377 0.11378,0.22755 l 0.11377,0.11378 c 51.54134,70.20089 70.31467,138.69511 76.8,171.69067 2.38934,11.94666 12.74312,20.36622 24.80356,20.36622 h 104.448 c 12.17422,0 22.528,-8.53334 24.80356,-20.36622 6.48533,-32.99556 25.25866,-101.48978 76.8,-171.69067 l 0.11377,-0.11378 c 0,-0.11378 0.11378,-0.22755 0.11378,-0.22755 z M 562.85867,750.02311 H 461.25511 c -14.44978,0 -26.16889,11.71911 -26.16889,26.16889 0,14.44978 11.71911,26.16889 26.16889,26.16889 h 101.60356 c 14.44977,0 26.16889,-11.71911 26.16889,-26.16889 0,-14.336 -11.71912,-26.16889 -26.16889,-26.16889 z"
       fill="#ffffff"
       p-id="10053"
       id="path2" />
  </g>
</svg>
