<?xml version="1.0" encoding="UTF-8" standalone="no"?>
<svg
   t="1756355595991"
   class="icon"
   viewBox="0 0 1024 1024"
   version="1.1"
   p-id="5181"
   width="200"
   height="200"
   id="svg3"
   sodipodi:docname="Missing.svg"
   inkscape:version="1.4.2 (f4327f4, 2025-05-13)"
   xmlns:inkscape="http://www.inkscape.org/namespaces/inkscape"
   xmlns:sodipodi="http://sodipodi.sourceforge.net/DTD/sodipodi-0.dtd"
   xmlns="http://www.w3.org/2000/svg"
   xmlns:svg="http://www.w3.org/2000/svg">
  <defs
     id="defs3" />
  <sodipodi:namedview
     id="namedview3"
     pagecolor="#ffffff"
     bordercolor="#000000"
     borderopacity="0.25"
     inkscape:showpageshadow="2"
     inkscape:pageopacity="0.0"
     inkscape:pagecheckerboard="0"
     inkscape:deskcolor="#d1d1d1"
     inkscape:zoom="2.945"
     inkscape:cx="114.7708"
     inkscape:cy="89.643463"
     inkscape:window-width="2560"
     inkscape:window-height="1476"
     inkscape:window-x="-12"
     inkscape:window-y="627"
     inkscape:window-maximized="1"
     inkscape:current-layer="svg3" />
  <g
     id="g3"
     transform="matrix(0.75000191,0,0,0.75000191,75.498212,128.00146)">
    <path
       d="m 581.99961,32.405835 c -264.85982,0 -479.59028,214.730465 -479.59028,479.590275 0,264.85982 214.72917,479.59028 479.59028,479.59028 264.86111,0 479.59029,-214.72917 479.59029,-479.59028 0,-264.86111 -214.73047,-479.590275 -479.59029,-479.590275 z"
       fill="#f6e7a8"
       p-id="5182"
       id="path1" />
    <path
       d="m 581.99961,1023.9948 c -69.10255,0 -136.15688,-13.5415 -199.29886,-40.24996 C 321.72883,957.95422 266.97673,921.04102 219.96637,874.02935 172.9547,827.01769 136.0415,772.26689 110.25217,711.29498 83.54374,648.15169 70.002203,581.09866 70.002203,511.99611 c 0,-69.10254 13.541537,-136.15688 40.249967,-199.29886 25.79063,-60.97192 62.70253,-115.72402 109.7142,-162.73438 47.01166,-47.01167 101.76246,-83.924866 162.73438,-109.714196 63.14198,-26.708433 130.19631,-40.24997 199.29886,-40.24997 69.10254,0 136.15688,13.541537 199.30016,40.24997 60.97062,25.790626 115.72401,62.702526 162.73438,109.714196 47.01166,47.01036 83.92485,101.76246 109.71545,162.73438 26.7085,63.14198 40.25,130.19632 40.25,199.29886 0,69.10384 -13.5415,136.15688 -40.25,199.29886 -25.7906,60.97192 -62.70379,115.72402 -109.71545,162.73438 -47.01167,47.01037 -101.76376,83.92487 -162.73438,109.71549 -63.14458,26.70716 -130.19762,40.24996 -199.30016,40.24996 z m 0,-959.180538 c -119.44191,0 -231.73711,46.516468 -316.20125,130.980598 -84.46414,84.46414 -130.9806,196.75934 -130.9806,316.20125 0,119.44191 46.51646,231.7384 130.9806,316.20125 84.46414,84.46414 196.75934,130.9806 316.20125,130.9806 119.44191,0 231.7384,-46.51646 316.20125,-130.9806 84.46414,-84.46285 130.98064,-196.75934 130.98064,-316.20125 0,-119.4419 -46.5165,-231.7384 -130.98064,-316.20125 C 813.73801,111.33073 701.44152,64.814262 581.99961,64.814262 Z"
       fill="#d0c300"
       p-id="5183"
       id="path2" />
    <path
       d="m 586.64827,207.45542 c 51.27662,0 91.54344,14.11192 120.77584,42.30985 29.2324,28.21088 43.8486,68.46604 43.8486,120.77583 0,24.61744 -5.90222,47.44335 -17.6924,68.46475 -11.80315,21.03566 -30.00243,43.8486 -54.61987,68.46475 -14.88065,14.36471 -26.67084,26.53991 -35.38611,36.54115 -8.72565,9.99994 -15.26437,18.97967 -19.61747,26.92492 -4.36218,7.95821 -7.1869,15.76994 -8.4612,23.4637 -1.28596,7.69247 -1.92246,16.41941 -1.92246,26.1549 0,32.82714 -13.84748,49.23358 -41.54113,49.23358 -10.76996,0 -19.23116,-0.77002 -25.38616,-2.30748 -6.15372,-1.53875 -10.9022,-4.23124 -14.23119,-8.07747 -3.34196,-3.84623 -5.51721,-8.96677 -6.53873,-15.38493 -1.03447,-6.4065 -1.53875,-14.23249 -1.53875,-23.4637 0,-52.31109 26.66047,-104.62089 80.00474,-156.93198 12.30872,-11.79148 22.30867,-21.6592 30.00243,-29.61741 7.69376,-7.94525 13.71394,-15.38623 18.07742,-22.30867 4.3505,-6.92373 7.17522,-13.84747 8.46119,-20.76991 1.2743,-6.92374 1.92376,-15.2527 1.92376,-25.00116 0,-23.07868 -6.92373,-40.77109 -20.76991,-53.07981 -13.84747,-12.30872 -33.07993,-18.46244 -57.69607,-18.46244 -24.61745,0 -44.36585,7.05597 -59.23483,21.15493 -14.88065,14.11192 -22.8259,31.15616 -23.84742,51.15605 -1.53875,30.26688 -16.4194,45.38736 -44.61733,45.38736 -29.74964,0 -44.61733,-14.6162 -44.61733,-43.84861 0,-42.04539 16.40774,-79.4875 49.23359,-112.31464 32.30861,-32.30861 74.10122,-48.46356 125.39079,-48.46356 z m -20.76991,481.56719 c 9.23122,0 17.81297,1.8032 25.77118,5.38368 a 71.085941,71.085941 0 0 1 21.15363,14.61621 71.091126,71.091126 0 0 1 14.6162,21.15492 c 3.58178,7.95692 5.38499,16.53867 5.38499,25.76989 0,9.23121 -1.8045,17.81426 -5.38499,25.77118 a 71.091126,71.091126 0 0 1 -14.6162,21.15492 71.080755,71.080755 0 0 1 -21.15363,14.61491 c -7.95821,3.58307 -16.53996,5.38498 -25.77118,5.38498 -9.23121,0 -17.82593,-1.8032 -25.77118,-5.38498 a 70.939454,70.939454 0 0 1 -21.15492,-14.61491 70.87723,70.87723 0 0 1 -14.6162,-21.15492 c -3.59345,-7.95692 -5.38499,-16.53997 -5.38499,-25.77118 0,-9.23122 1.79024,-17.81297 5.38499,-25.76989 a 70.900564,70.900564 0 0 1 14.6162,-21.15492 70.943343,70.943343 0 0 1 21.15492,-14.61621 c 7.94525,-3.58048 16.53867,-5.38368 25.77118,-5.38368 z"
       fill="#807800"
       p-id="5184"
       id="path3" />
  </g>
</svg>
