<?xml version="1.0" encoding="UTF-8" standalone="no"?>
<svg
   t="1756356406706"
   class="icon"
   viewBox="0 0 1037 1024"
   version="1.1"
   p-id="24125"
   width="202.5390625"
   height="200"
   id="svg15"
   sodipodi:docname="Module.svg"
   inkscape:version="1.4.2 (f4327f4, 2025-05-13)"
   xmlns:inkscape="http://www.inkscape.org/namespaces/inkscape"
   xmlns:sodipodi="http://sodipodi.sourceforge.net/DTD/sodipodi-0.dtd"
   xmlns="http://www.w3.org/2000/svg"
   xmlns:svg="http://www.w3.org/2000/svg">
  <defs
     id="defs15" />
  <sodipodi:namedview
     id="namedview15"
     pagecolor="#ffffff"
     bordercolor="#000000"
     borderopacity="0.25"
     inkscape:showpageshadow="2"
     inkscape:pageopacity="0.0"
     inkscape:pagecheckerboard="0"
     inkscape:deskcolor="#d1d1d1"
     inkscape:zoom="5.89"
     inkscape:cx="101.18846"
     inkscape:cy="100"
     inkscape:window-width="2560"
     inkscape:window-height="1476"
     inkscape:window-x="-12"
     inkscape:window-y="627"
     inkscape:window-maximized="1"
     inkscape:current-layer="svg15" />
  <g
     id="g15"
     transform="translate(134.50003,132.88815)">
    <path
       d="m 17.275055,459.03131 v 155.47557 a 49.357323,49.357323 0 0 0 24.185088,41.95372 l 135.239067,77.98458 a 49.357323,49.357323 0 0 0 49.35732,0 l 134.7455,-77.98458 a 49.357323,49.357323 0 0 0 23.19794,-41.95372 V 459.03131 A 49.357323,49.357323 0 0 0 359.81488,417.07759 L 225.06939,339.09302 a 49.357323,49.357323 0 0 0 -49.35733,0 L 41.460143,417.07759 a 49.357323,49.357323 0 0 0 -24.185088,41.95372 z"
       fill="#c2e4fb"
       p-id="24126"
       id="path1"
       style="stroke-width:0.740414" />
    <path
       d="m 200.8843,758.13669 a 66.632387,66.632387 0 0 1 -33.06941,-8.88432 L 33.069398,671.76137 A 66.632387,66.632387 0 0 1 -8.3803722e-6,614.50688 V 459.03131 A 65.151667,65.151667 0 0 1 33.069398,402.27039 L 167.81489,324.28582 a 65.151667,65.151667 0 0 1 68.11311,0 l 132.27762,77.98457 a 65.151667,65.151667 0 0 1 33.06941,56.76092 v 155.47557 a 66.632387,66.632387 0 0 1 -33.06941,57.25449 l -132.27762,77.491 a 63.177374,63.177374 0 0 1 -35.0437,8.88432 z m 0,-408.18506 a 35.537273,35.537273 0 0 0 -14.31363,3.94858 L 50.344461,431.88478 a 30.601541,30.601541 0 0 0 -15.794343,27.14653 v 155.47557 a 30.601541,30.601541 0 0 0 15.794343,27.14653 l 136.226209,77.98457 a 31.588687,31.588687 0 0 0 31.09512,0 l 134.74549,-77.98457 a 30.601541,30.601541 0 0 0 15.79434,-27.14653 V 459.03131 A 30.601541,30.601541 0 0 0 352.41128,431.88478 L 216.18507,353.90021 a 33.56298,33.56298 0 0 0 -15.30077,-3.94858 z"
       fill="#4f729b"
       p-id="24127"
       id="path2"
       style="stroke-width:0.740414" />
    <path
       d="m 200.8843,553.79737 a 19.249356,19.249356 0 0 1 -8.88432,0 L 26.652946,458.53774 a 17.275063,17.275063 0 0 1 -6.416452,-23.69152 16.287917,16.287917 0 0 1 23.197942,-6.41645 l 165.840604,93.28534 a 16.287917,16.287917 0 0 1 6.41646,23.19794 16.287917,16.287917 0 0 1 -14.8072,8.88432 z"
       fill="#4f729b"
       p-id="24128"
       id="path3"
       style="stroke-width:0.740414" />
    <path
       d="m 200.8843,553.79737 a 17.275063,17.275063 0 0 1 -14.8072,-7.89717 17.768636,17.768636 0 0 1 5.42931,-24.18509 L 361.2956,417.57116 a 17.396269,17.396269 0 0 1 18.26221,29.61439 L 209.76862,551.32951 a 20.236502,20.236502 0 0 1 -8.88432,2.46786 z"
       fill="#4f729b"
       p-id="24129"
       id="path4"
       style="stroke-width:0.740414" />
    <path
       d="M 200.8843,738.39376 A 16.78149,16.78149 0 0 1 183.60923,721.61227 V 536.52231 a 17.275063,17.275063 0 0 1 17.27507,-17.27506 17.275063,17.275063 0 0 1 17.27506,17.27506 v 185.08996 a 17.275063,17.275063 0 0 1 -17.27506,16.78149 z"
       fill="#4f729b"
       p-id="24130"
       id="path5"
       style="stroke-width:0.740414" />
    <path
       d="m 200.8843,143.63801 v 155.47557 a 49.357323,49.357323 0 0 0 24.18509,41.95373 l 134.74549,77.98457 a 49.357323,49.357323 0 0 0 49.35732,0 l 134.7455,-77.98457 a 49.357323,49.357323 0 0 0 24.18508,-41.95373 V 143.63801 A 49.357323,49.357323 0 0 0 543.9177,101.68429 L 408.18506,23.699718 a 49.357323,49.357323 0 0 0 -49.35733,0 L 225.06939,101.68429 a 49.357323,49.357323 0 0 0 -24.18509,41.95372 z"
       fill="#c2e4fb"
       p-id="24131"
       id="path6"
       style="stroke-width:0.740414" />
    <path
       d="m 383.99997,442.74339 a 66.632387,66.632387 0 0 1 -33.06941,-8.88431 L 216.18507,355.87451 A 64.658094,64.658094 0 0 1 183.60923,299.11358 V 143.63801 A 66.138813,66.138813 0 0 1 216.18507,86.383519 L 350.93056,8.8925212 a 66.138813,66.138813 0 0 1 66.13881,0 l 134.7455,77.4909978 a 66.138813,66.138813 0 0 1 32.57583,57.254491 v 155.47557 a 64.658094,64.658094 0 0 1 -32.57583,56.76093 L 416.5758,433.85908 a 63.177374,63.177374 0 0 1 -32.57583,8.88431 z m 0,-409.172207 A 32.08226,32.08226 0 0 0 368.6992,37.519768 L 235.928,116.49149 a 31.095114,31.095114 0 0 0 -15.30077,27.14652 v 155.47557 a 31.095114,31.095114 0 0 0 15.30077,27.14653 l 132.27762,77.98457 a 31.588687,31.588687 0 0 0 31.09512,0 L 534.5398,326.26011 a 31.095114,31.095114 0 0 0 15.30077,-27.14653 V 143.63801 A 31.095114,31.095114 0 0 0 534.5398,116.49149 L 399.30074,38.506916 a 32.08226,32.08226 0 0 0 -15.30077,-4.935733 z"
       fill="#4f729b"
       p-id="24132"
       id="path7"
       style="stroke-width:0.740414" />
    <path
       d="m 383.99997,238.40408 a 12.832904,12.832904 0 0 1 -8.39075,-2.46787 l -165.8406,-92.79177 a 17.275063,17.275063 0 0 1 -6.41646,-23.69151 16.78149,16.78149 0 0 1 23.19795,-6.41646 l 165.8406,93.28535 a 16.287917,16.287917 0 0 1 6.41645,24.67866 16.287917,16.287917 0 0 1 -14.80719,7.4036 z"
       fill="#4f729b"
       p-id="24133"
       id="path8"
       style="stroke-width:0.740414" />
    <path
       d="m 383.99997,238.40408 a 17.275063,17.275063 0 0 1 -14.8072,-7.4036 17.275063,17.275063 0 0 1 5.92288,-23.69152 L 544.90484,103.16501 a 17.275063,17.275063 0 1 1 17.76864,29.61439 L 392.88429,235.93621 a 18.26221,18.26221 0 0 1 -8.88432,2.46787 z"
       fill="#4f729b"
       p-id="24134"
       id="path9"
       style="stroke-width:0.740414" />
    <path
       d="M 383.99997,423.00046 A 17.275063,17.275063 0 0 1 366.7249,405.7254 V 221.12901 a 17.275065,17.275065 0 0 1 34.55013,0 V 405.7254 a 17.275063,17.275063 0 0 1 -17.27506,17.27506 z"
       fill="#4f729b"
       p-id="24135"
       id="path10"
       style="stroke-width:0.740414" />
    <path
       d="m 383.99997,459.03131 v 155.47557 a 49.357323,49.357323 0 0 0 24.18509,41.95372 l 134.74549,77.98458 a 49.357323,49.357323 0 0 0 49.35732,0 L 727.52694,656.4606 a 49.357323,49.357323 0 0 0 24.18509,-41.95372 V 459.03131 A 49.357323,49.357323 0 0 0 727.52694,417.07759 L 591.30073,339.09302 a 49.357323,49.357323 0 0 0 -49.35733,0 l -133.75834,77.98457 a 49.357323,49.357323 0 0 0 -24.18509,41.95372 z"
       fill="#c2e4fb"
       p-id="24136"
       id="path11"
       style="stroke-width:0.740414" />
    <path
       d="m 567.11564,758.13669 a 63.177374,63.177374 0 0 1 -32.57584,-8.88432 l -135.23906,-77.491 A 66.138813,66.138813 0 0 1 366.7249,614.50688 V 459.03131 a 64.658094,64.658094 0 0 1 32.57584,-56.76092 L 534.5398,324.28582 a 65.151667,65.151667 0 0 1 65.64524,0 l 134.7455,77.98457 a 65.151667,65.151667 0 0 1 33.0694,56.76092 v 155.47557 a 66.632387,66.632387 0 0 1 -33.0694,57.25449 l -134.7455,77.491 a 66.632387,66.632387 0 0 1 -33.0694,8.88432 z m 0,-408.18506 a 32.08226,32.08226 0 0 0 -15.30077,3.94858 L 416.5758,431.88478 a 31.095114,31.095114 0 0 0 -15.30077,27.14653 v 155.47557 a 31.095114,31.095114 0 0 0 15.30077,27.14653 l 135.23907,77.98457 a 31.588687,31.588687 0 0 0 31.09511,0 l 134.74549,-77.98457 a 30.601541,30.601541 0 0 0 15.79435,-27.14653 V 459.03131 A 30.601541,30.601541 0 0 0 717.65547,431.88478 L 581.42926,353.90021 a 35.537273,35.537273 0 0 0 -14.31362,-3.94858 z"
       fill="#4f729b"
       p-id="24137"
       id="path12"
       style="stroke-width:0.740414" />
    <path
       d="m 567.11564,553.79737 a 17.275063,17.275063 0 0 1 -8.39075,0 L 393.37786,458.53774 a 17.768636,17.768636 0 0 1 -6.91003,-23.69152 17.275063,17.275063 0 0 1 23.69152,-6.41645 l 165.84061,93.28534 a 17.275063,17.275063 0 0 1 6.41645,23.19794 16.78149,16.78149 0 0 1 -15.30077,8.88432 z"
       fill="#4f729b"
       p-id="24138"
       id="path13"
       style="stroke-width:0.740414" />
    <path
       d="m 567.11564,553.79737 a 17.275063,17.275063 0 0 1 -14.31363,-7.89717 17.275063,17.275063 0 0 1 5.42931,-24.18509 L 729.50123,417.57116 a 17.275063,17.275063 0 0 1 23.69152,5.92288 17.275063,17.275063 0 0 1 -5.42931,23.69151 L 576.49353,551.32951 a 20.236502,20.236502 0 0 1 -9.37789,2.46786 z"
       fill="#4f729b"
       p-id="24139"
       id="path14"
       style="stroke-width:0.740414" />
    <path
       d="M 567.11564,738.39376 A 17.275063,17.275063 0 0 1 549.84057,721.61227 V 536.52231 a 17.275063,17.275063 0 0 1 17.27507,-17.27506 17.275063,17.275063 0 0 1 17.27506,17.27506 v 185.08996 a 16.78149,16.78149 0 0 1 -17.27506,16.78149 z"
       fill="#4f729b"
       p-id="24140"
       id="path15"
       style="stroke-width:0.740414" />
  </g>
</svg>
