<?xml version="1.0" encoding="UTF-8" standalone="no"?>
<svg
   t="1756293721026"
   class="icon"
   viewBox="0 0 1024 1024"
   version="1.1"
   p-id="7292"
   width="200"
   height="200"
   id="svg3"
   sodipodi:docname="Text.svg"
   inkscape:version="1.4.2 (f4327f4, 2025-05-13)"
   xmlns:inkscape="http://www.inkscape.org/namespaces/inkscape"
   xmlns:sodipodi="http://sodipodi.sourceforge.net/DTD/sodipodi-0.dtd"
   xmlns="http://www.w3.org/2000/svg"
   xmlns:svg="http://www.w3.org/2000/svg">
  <defs
     id="defs3" />
  <sodipodi:namedview
     id="namedview3"
     pagecolor="#ffffff"
     bordercolor="#000000"
     borderopacity="0.25"
     inkscape:showpageshadow="2"
     inkscape:pageopacity="0.0"
     inkscape:pagecheckerboard="0"
     inkscape:deskcolor="#d1d1d1"
     inkscape:zoom="5.89"
     inkscape:cx="100"
     inkscape:cy="100"
     inkscape:window-width="2560"
     inkscape:window-height="1476"
     inkscape:window-x="-12"
     inkscape:window-y="627"
     inkscape:window-maximized="1"
     inkscape:current-layer="svg3" />
  <g
     id="g1"
     transform="matrix(1.3405247,0,0,1.3405247,-174.34865,-219.31655)">
    <path
       d="m 512,576 m -256,0 a 256,256 0 1 0 512,0 256,256 0 1 0 -512,0 z"
       fill="#ffffff"
       p-id="7293"
       id="path1" />
    <path
       d="m 448,320 h 128 v 448 a 64,64 0 0 1 -64,64 64,64 0 0 1 -64,-64 z"
       fill="#040000"
       p-id="7294"
       id="path2"
       style="fill:#1296db;fill-opacity:1" />
    <path
       d="m 320,387.09 a 52.33,52.33 0 0 0 32.59,-11.42 256,256 0 0 1 318.83,0 52.28,52.28 0 0 0 32.58,11.42 64,64 0 0 0 64,-64 64,64 0 0 0 -64,-64 H 320 a 64,64 0 0 0 -64,64 64,64 0 0 0 64,64 z"
       fill="#040000"
       p-id="7295"
       id="path3"
       style="fill:#1296db;fill-opacity:1" />
  </g>
</svg>
