<?xml version="1.0" encoding="UTF-8" standalone="no"?>
<svg
   t="1756358334618"
   class="icon"
   viewBox="0 0 1024 1024"
   version="1.1"
   p-id="144525"
   width="200"
   height="200"
   id="svg3"
   sodipodi:docname="TypeParameter.svg"
   inkscape:version="1.4.2 (f4327f4, 2025-05-13)"
   xmlns:inkscape="http://www.inkscape.org/namespaces/inkscape"
   xmlns:sodipodi="http://sodipodi.sourceforge.net/DTD/sodipodi-0.dtd"
   xmlns="http://www.w3.org/2000/svg"
   xmlns:svg="http://www.w3.org/2000/svg">
  <defs
     id="defs3" />
  <sodipodi:namedview
     id="namedview3"
     pagecolor="#ffffff"
     bordercolor="#000000"
     borderopacity="0.25"
     inkscape:showpageshadow="2"
     inkscape:pageopacity="0.0"
     inkscape:pagecheckerboard="0"
     inkscape:deskcolor="#d1d1d1"
     inkscape:zoom="5.89"
     inkscape:cx="100"
     inkscape:cy="100"
     inkscape:window-width="2560"
     inkscape:window-height="1476"
     inkscape:window-x="-12"
     inkscape:window-y="627"
     inkscape:window-maximized="1"
     inkscape:current-layer="svg3" />
  <g
     id="g3"
     transform="matrix(0.75030345,0,0,0.75030345,127.84463,128.01878)">
    <path
       d="m 561.86081,12.794197 375.4914,208.070193 a 95.042606,95.042606 0 0 1 49.86082,82.9064 v 415.99417 c 0,34.21534 -19.00852,65.79873 -49.86082,82.9064 l -375.4914,208.07024 a 103.37711,103.37711 0 0 1 -99.72162,0 L 86.647785,802.67136 A 95.042606,95.042606 0 0 1 36.786972,719.76496 V 303.77079 c 0,-34.21534 19.008521,-65.79873 49.860813,-82.9064 L 462.13919,12.794197 a 103.37711,103.37711 0 0 1 99.72162,0 z m -59.36507,60.827268 -2.92439,1.389084 -375.4914,207.997091 a 23.906871,23.906871 0 0 0 -12.28243,17.91187 l -0.21933,2.85128 v 415.99417 c 0,7.60341 3.7286,14.62194 10.08914,19.15474 l 2.41262,1.60842 375.41829,207.99708 c 6.72609,3.65549 14.84127,4.24037 21.93291,1.4622 l 3.07061,-1.4622 375.41829,-207.99708 a 23.906871,23.906871 0 0 0 12.28243,-17.91188 l 0.21933,-2.85128 V 303.77079 c 0,-7.60341 -3.7286,-14.62194 -10.08914,-19.15474 L 899.92005,283.00764 524.50176,75.010549 a 25.880833,25.880833 0 0 0 -21.93291,-1.462194 z"
       fill="#a04ad3"
       p-id="144526"
       id="path1" />
    <path
       d="m 502.49574,73.621465 -2.92439,1.389084 -375.4914,207.997091 a 23.906871,23.906871 0 0 0 -12.28243,17.91187 l -0.21933,2.85128 v 415.99417 c 0,7.60341 3.7286,14.62194 10.08914,19.15474 l 2.41262,1.60842 375.41829,207.99708 c 6.72609,3.65549 14.84127,4.24037 21.93291,1.4622 l 3.07061,-1.4622 375.41829,-207.99708 a 23.906871,23.906871 0 0 0 12.28243,-17.91188 l 0.21933,-2.85128 V 303.77079 c 0,-7.60341 -3.7286,-14.62194 -10.08914,-19.15474 L 899.92005,283.00764 524.50176,75.010549 a 25.880833,25.880833 0 0 0 -21.93291,-1.462194 v 0.07311 z"
       fill="#a04ad3"
       fill-opacity="0.2"
       p-id="144527"
       id="path2" />
    <path
       d="m 753.9931,334.62308 a 34.873325,34.873325 0 0 1 -4.75213,48.10618 l -2.77817,2.19329 -197.03063,141.83281 v 260.27053 a 36.554848,36.554848 0 0 1 -35.60443,35.82375 36.920397,36.920397 0 0 1 -39.04058,-32.3876 l -0.21932,-3.43615 V 526.75536 L 277.61031,384.92255 a 34.946435,34.946435 0 0 1 -8.70005,-48.76417 38.382591,38.382591 0 0 1 50.44569,-10.67401 l 3.14372,2.04707 L 512,463.88103 701.57344,327.53144 a 38.4557,38.4557 0 0 1 52.41966,7.16475 z"
       fill="#a04ad3"
       p-id="144528"
       id="path3" />
  </g>
</svg>
