<?xml version="1.0" encoding="UTF-8" standalone="no"?>
<svg
   t="1756357587366"
   class="icon"
   viewBox="0 0 1024 1024"
   version="1.1"
   p-id="75382"
   width="200"
   height="200"
   id="svg2"
   sodipodi:docname="Value.svg"
   inkscape:version="1.4.2 (f4327f4, 2025-05-13)"
   xmlns:inkscape="http://www.inkscape.org/namespaces/inkscape"
   xmlns:sodipodi="http://sodipodi.sourceforge.net/DTD/sodipodi-0.dtd"
   xmlns="http://www.w3.org/2000/svg"
   xmlns:svg="http://www.w3.org/2000/svg">
  <defs
     id="defs2" />
  <sodipodi:namedview
     id="namedview2"
     pagecolor="#ffffff"
     bordercolor="#000000"
     borderopacity="0.25"
     inkscape:showpageshadow="2"
     inkscape:pageopacity="0.0"
     inkscape:pagecheckerboard="0"
     inkscape:deskcolor="#d1d1d1"
     inkscape:zoom="2.0824295"
     inkscape:cx="-59.545834"
     inkscape:cy="139.74063"
     inkscape:window-width="2560"
     inkscape:window-height="1476"
     inkscape:window-x="-12"
     inkscape:window-y="627"
     inkscape:window-maximized="1"
     inkscape:current-layer="svg2" />
  <g
     id="g2"
     transform="translate(-114.53059,127.99952)">
    <path
       d="M 895.33092,0 H 357.73025 C 293.73065,0 242.53059,51.200064 242.53059,115.19967 v 537.60161 c 0,63.99961 51.20006,115.19967 115.19966,115.19967 h 537.60067 c 64.00055,0 115.19968,-51.20006 115.19968,-115.19967 V 115.20062 C 1010.5306,51.200064 959.33052,0 895.33092,0 Z m 38.39957,652.80128 c 0,21.76036 -16.64016,38.39958 -38.39957,38.39958 H 357.73025 c -21.76036,0 -38.39957,-16.64017 -38.39957,-38.39958 V 115.20062 c 0,-21.760362 16.64016,-38.400525 38.39957,-38.400525 h 537.60067 c 21.76036,0 38.39957,16.640163 38.39957,38.400525 z"
       fill="#00aaff"
       p-id="75383"
       id="path1"
       style="stroke-width:0.750001" />
    <path
       d="m 831.6764,221.43947 c 0,22.49331 -18.2344,40.72771 -40.72771,40.72771 H 462.11153 c -22.49331,0 -40.72771,-18.2344 -40.72771,-40.72771 0,-22.49331 18.2344,-40.72772 40.72771,-40.72772 h 328.83716 c 22.49331,0 40.72771,18.23441 40.72771,40.72772 z m 0,162.56101 c 0,22.49331 -18.2344,40.72771 -40.72771,40.72771 H 462.11153 c -22.49331,0 -40.72771,-18.2344 -40.72771,-40.72771 0,-22.49331 18.2344,-40.72772 40.72771,-40.72772 h 328.83716 c 22.49331,0 40.72771,18.23441 40.72771,40.72772 z m -152.01736,162.561 c 0,22.49331 -18.2344,40.72772 -40.72771,40.72772 H 462.11058 c -22.49331,0 -40.72771,-18.23441 -40.72771,-40.72772 0,-22.49331 18.2344,-40.72771 40.72771,-40.72771 h 176.82075 c 22.49426,0 40.72771,18.2344 40.72771,40.72771 z"
       fill="#00aaff"
       p-id="75384"
       id="path2"
       style="stroke-width:0.750001" />
  </g>
</svg>
